<svg xmlns="http://www.w3.org/2000/svg" xmlns:xlink="http://www.w3.org/1999/xlink" width="500" zoomAndPan="magnify" viewBox="0 0 375 374.999991" height="500" preserveAspectRatio="xMidYMid meet" version="1.0"><defs><g/></defs><g fill="#000000" fill-opacity="1"><g transform="translate(13.295741, 205.348533)"><g><path d="M 0.578125 -36.40625 L 17.421875 -36.40625 L 29.34375 -9.578125 L 39.328125 -36.40625 L 43.328125 -36.40625 L 29.59375 0 L 16.703125 0 Z M 0.578125 -36.40625 "/></g></g></g><g fill="#000000" fill-opacity="1"><g transform="translate(57.139431, 205.348533)"><g><path d="M 1.453125 -36.40625 L 18.40625 -36.40625 L 18.40625 0 L 1.453125 0 Z M 1.453125 -36.40625 "/></g></g></g><g fill="#000000" fill-opacity="1"><g transform="translate(77.058922, 205.348533)"><g><path d="M 1.875 -36.40625 L 36.5625 -36.40625 C 38.332031 -36.40625 39.953125 -35.976562 41.421875 -35.125 C 42.898438 -34.28125 44.070312 -33.117188 44.9375 -31.640625 C 45.800781 -30.171875 46.234375 -28.550781 46.234375 -26.78125 C 46.234375 -25.082031 45.816406 -23.46875 44.984375 -21.9375 C 44.160156 -20.414062 43.054688 -19.1875 41.671875 -18.25 C 43.054688 -17.28125 44.160156 -16.023438 44.984375 -14.484375 C 45.816406 -12.941406 46.234375 -11.320312 46.234375 -9.625 C 46.234375 -7.882812 45.800781 -6.273438 44.9375 -4.796875 C 44.070312 -3.328125 42.898438 -2.160156 41.421875 -1.296875 C 39.953125 -0.429688 38.332031 0 36.5625 0 L 1.875 0 Z M 20.90625 -19.71875 C 22.15625 -19.71875 23.304688 -20.019531 24.359375 -20.625 C 25.421875 -21.226562 26.253906 -22.054688 26.859375 -23.109375 C 27.472656 -24.171875 27.78125 -25.3125 27.78125 -26.53125 C 27.78125 -27.78125 27.472656 -28.929688 26.859375 -29.984375 C 26.253906 -31.046875 25.421875 -31.890625 24.359375 -32.515625 C 23.304688 -33.140625 22.15625 -33.453125 20.90625 -33.453125 L 20.125 -33.453125 L 20.125 -19.765625 C 20.300781 -19.734375 20.5625 -19.71875 20.90625 -19.71875 Z M 20.90625 -3.015625 C 22.15625 -3.015625 23.304688 -3.316406 24.359375 -3.921875 C 25.421875 -4.535156 26.253906 -5.367188 26.859375 -6.421875 C 27.472656 -7.484375 27.78125 -8.640625 27.78125 -9.890625 C 27.78125 -11.097656 27.472656 -12.226562 26.859375 -13.28125 C 26.253906 -14.34375 25.421875 -15.175781 24.359375 -15.78125 C 23.304688 -16.394531 22.15625 -16.703125 20.90625 -16.703125 L 20.125 -16.703125 L 20.125 -3.0625 C 20.300781 -3.03125 20.5625 -3.015625 20.90625 -3.015625 Z M 20.90625 -3.015625 "/></g></g></g><g fill="#000000" fill-opacity="1"><g transform="translate(124.95933, 205.348533)"><g><path d="M 1.453125 -36.40625 L 39.265625 -36.40625 L 39.265625 -33.34375 L 19.765625 -33.34375 L 19.765625 -19.875 L 29.34375 -19.875 L 29.34375 -16.75 L 19.765625 -16.75 L 19.765625 -3.125 L 39.265625 -3.125 L 39.265625 0 L 1.453125 0 Z M 1.453125 -36.40625 "/></g></g></g><g fill="#000000" fill-opacity="1"><g transform="translate(193.799917, 204.963061)"><g><path d="M 34.703125 -36.375 C 34.804688 -36.375 34.859375 -36.320312 34.859375 -36.21875 C 34.859375 -36.070312 34.804688 -36 34.703125 -36 C 34.078125 -36 33.460938 -35.78125 32.859375 -35.34375 C 32.253906 -34.914062 31.828125 -34.390625 31.578125 -33.765625 L 20.703125 -6.453125 L 20.390625 -5.71875 L 17.75 0.890625 C 17.75 0.921875 17.75 0.9375 17.75 0.9375 C 17.75 0.9375 17.726562 0.9375 17.6875 0.9375 C 17.6875 0.96875 17.6875 0.96875 17.6875 0.9375 C 17.6875 0.96875 17.6875 0.984375 17.6875 0.984375 C 17.65625 0.984375 17.640625 0.984375 17.640625 0.984375 C 17.609375 0.984375 17.59375 0.984375 17.59375 0.984375 C 17.59375 0.984375 17.570312 0.984375 17.53125 0.984375 C 17.5 0.953125 17.484375 0.9375 17.484375 0.9375 C 17.453125 0.90625 17.4375 0.890625 17.4375 0.890625 L 3.59375 -33.828125 C 3.34375 -34.410156 2.914062 -34.914062 2.3125 -35.34375 C 1.707031 -35.78125 1.09375 -36 0.46875 -36 C 0.363281 -36 0.3125 -36.070312 0.3125 -36.21875 C 0.3125 -36.320312 0.363281 -36.375 0.46875 -36.375 L 11.03125 -36.375 C 11.164062 -36.375 11.234375 -36.320312 11.234375 -36.21875 C 11.234375 -36.070312 11.164062 -36 11.03125 -36 C 10.476562 -36 10.078125 -35.828125 9.828125 -35.484375 C 9.554688 -35.066406 9.539062 -34.546875 9.78125 -33.921875 L 20.546875 -7.03125 L 31.265625 -33.921875 C 31.515625 -34.546875 31.5 -35.066406 31.21875 -35.484375 C 30.976562 -35.828125 30.578125 -36 30.015625 -36 C 29.910156 -36 29.859375 -36.070312 29.859375 -36.21875 C 29.859375 -36.320312 29.910156 -36.375 30.015625 -36.375 L 32.359375 -36.375 C 32.359375 -36.375 32.550781 -36.375 32.9375 -36.375 C 33.320312 -36.375 33.710938 -36.375 34.109375 -36.375 C 34.503906 -36.375 34.703125 -36.375 34.703125 -36.375 Z M 34.703125 -36.375 "/></g></g></g><g fill="#000000" fill-opacity="1"><g transform="translate(229.029899, 204.963061)"><g><path d="M 12.484375 -0.15625 C 12.628906 -0.15625 12.703125 -0.101562 12.703125 0 C 12.703125 0.101562 12.628906 0.15625 12.484375 0.15625 L 2.34375 0.15625 C 2.238281 0.15625 2.1875 0.101562 2.1875 0 C 2.1875 -0.101562 2.238281 -0.15625 2.34375 -0.15625 C 2.96875 -0.15625 3.488281 -0.367188 3.90625 -0.796875 C 4.320312 -1.234375 4.53125 -1.75 4.53125 -2.34375 L 4.53125 -33.875 C 4.53125 -34.457031 4.320312 -34.957031 3.90625 -35.375 C 3.488281 -35.789062 2.96875 -36 2.34375 -36 C 2.238281 -36 2.1875 -36.070312 2.1875 -36.21875 C 2.1875 -36.320312 2.238281 -36.375 2.34375 -36.375 L 12.484375 -36.375 C 12.628906 -36.375 12.703125 -36.320312 12.703125 -36.21875 C 12.703125 -36.070312 12.628906 -36 12.484375 -36 C 11.898438 -36 11.398438 -35.789062 10.984375 -35.375 C 10.566406 -34.957031 10.359375 -34.457031 10.359375 -33.875 L 10.359375 -2.34375 C 10.359375 -1.75 10.566406 -1.234375 10.984375 -0.796875 C 11.398438 -0.367188 11.898438 -0.15625 12.484375 -0.15625 Z M 12.484375 -0.15625 "/></g></g></g><g fill="#000000" fill-opacity="1"><g transform="translate(243.912857, 204.963061)"><g><path d="M 20.390625 -17.375 C 21.953125 -16.4375 23.175781 -15.238281 24.0625 -13.78125 C 24.945312 -12.332031 25.390625 -10.753906 25.390625 -9.046875 C 25.390625 -6.347656 24.296875 -4.023438 22.109375 -2.078125 C 19.960938 -0.140625 17.34375 0.863281 14.25 0.9375 C 14.1875 0.9375 14.101562 0.9375 14 0.9375 C 11.882812 0.9375 9.921875 0.453125 8.109375 -0.515625 C 8.109375 -0.515625 8.054688 -0.550781 7.953125 -0.625 L 7.859375 -0.671875 C 7.128906 -1.054688 6.351562 -1.410156 5.53125 -1.734375 C 4.71875 -2.066406 4.085938 -2.097656 3.640625 -1.828125 C 3.222656 -1.578125 3.015625 -0.96875 3.015625 0 C 3.015625 0.101562 2.945312 0.15625 2.8125 0.15625 C 2.707031 0.15625 2.65625 0.101562 2.65625 0 L 2.65625 -9.046875 C 2.65625 -9.191406 2.707031 -9.265625 2.8125 -9.265625 C 2.945312 -9.265625 3.015625 -9.191406 3.015625 -9.046875 C 3.015625 -7.421875 3.457031 -5.894531 4.34375 -4.46875 C 5.226562 -3.050781 6.46875 -1.890625 8.0625 -0.984375 L 8.109375 -0.9375 C 8.210938 -0.863281 8.265625 -0.828125 8.265625 -0.828125 C 10.035156 0.109375 11.945312 0.578125 14 0.578125 C 14.132812 0.578125 14.21875 0.578125 14.25 0.578125 C 15.644531 0.535156 16.910156 0.210938 18.046875 -0.390625 C 19.191406 -0.992188 20.09375 -1.804688 20.75 -2.828125 C 21.414062 -3.859375 21.75 -4.976562 21.75 -6.1875 C 21.75 -7.332031 21.4375 -8.40625 20.8125 -9.40625 C 20.1875 -10.414062 19.335938 -11.234375 18.265625 -11.859375 L 7.5 -19.515625 C 6.070312 -20.410156 4.957031 -21.5625 4.15625 -22.96875 C 3.363281 -24.375 2.96875 -25.875 2.96875 -27.46875 C 2.96875 -30.144531 3.972656 -32.414062 5.984375 -34.28125 C 7.960938 -36.15625 10.375 -37.128906 13.21875 -37.203125 C 13.320312 -37.203125 13.40625 -37.203125 13.46875 -37.203125 C 15.175781 -37.203125 16.773438 -36.835938 18.265625 -36.109375 C 18.296875 -36.078125 18.335938 -36.050781 18.390625 -36.03125 C 18.441406 -36.007812 18.484375 -35.984375 18.515625 -35.953125 C 19.453125 -35.503906 20.347656 -35.128906 21.203125 -34.828125 C 22.054688 -34.535156 22.691406 -34.507812 23.109375 -34.75 C 23.453125 -35 23.625 -35.488281 23.625 -36.21875 C 23.625 -36.320312 23.675781 -36.375 23.78125 -36.375 C 23.882812 -36.375 23.9375 -36.320312 23.9375 -36.21875 L 23.9375 -27.46875 C 23.9375 -27.363281 23.882812 -27.3125 23.78125 -27.3125 C 23.675781 -27.3125 23.625 -27.363281 23.625 -27.46875 C 23.625 -29.164062 23.15625 -30.742188 22.21875 -32.203125 C 21.28125 -33.660156 19.992188 -34.804688 18.359375 -35.640625 C 18.328125 -35.671875 18.285156 -35.695312 18.234375 -35.71875 C 18.179688 -35.738281 18.140625 -35.765625 18.109375 -35.796875 C 16.648438 -36.492188 15.101562 -36.84375 13.46875 -36.84375 C 13.40625 -36.84375 13.320312 -36.84375 13.21875 -36.84375 C 11.375 -36.769531 9.851562 -36.117188 8.65625 -34.890625 C 7.46875 -33.660156 6.875 -32.125 6.875 -30.28125 C 6.875 -29.207031 7.128906 -28.203125 7.640625 -27.265625 C 8.160156 -26.328125 8.910156 -25.546875 9.890625 -24.921875 Z M 20.390625 -17.375 "/></g></g></g><g fill="#000000" fill-opacity="1"><g transform="translate(271.701332, 204.963061)"><g><path d="M 12.484375 -0.15625 C 12.628906 -0.15625 12.703125 -0.101562 12.703125 0 C 12.703125 0.101562 12.628906 0.15625 12.484375 0.15625 L 2.34375 0.15625 C 2.238281 0.15625 2.1875 0.101562 2.1875 0 C 2.1875 -0.101562 2.238281 -0.15625 2.34375 -0.15625 C 2.96875 -0.15625 3.488281 -0.367188 3.90625 -0.796875 C 4.320312 -1.234375 4.53125 -1.75 4.53125 -2.34375 L 4.53125 -33.875 C 4.53125 -34.457031 4.320312 -34.957031 3.90625 -35.375 C 3.488281 -35.789062 2.96875 -36 2.34375 -36 C 2.238281 -36 2.1875 -36.070312 2.1875 -36.21875 C 2.1875 -36.320312 2.238281 -36.375 2.34375 -36.375 L 12.484375 -36.375 C 12.628906 -36.375 12.703125 -36.320312 12.703125 -36.21875 C 12.703125 -36.070312 12.628906 -36 12.484375 -36 C 11.898438 -36 11.398438 -35.789062 10.984375 -35.375 C 10.566406 -34.957031 10.359375 -34.457031 10.359375 -33.875 L 10.359375 -2.34375 C 10.359375 -1.75 10.566406 -1.234375 10.984375 -0.796875 C 11.398438 -0.367188 11.898438 -0.15625 12.484375 -0.15625 Z M 12.484375 -0.15625 "/></g></g></g><g fill="#000000" fill-opacity="1"><g transform="translate(286.58429, 204.963061)"><g><path d="M 20.234375 -37.203125 C 22.734375 -37.203125 25.078125 -36.707031 27.265625 -35.71875 C 29.453125 -34.726562 31.367188 -33.359375 33.015625 -31.609375 C 34.660156 -29.859375 35.953125 -27.828125 36.890625 -25.515625 C 37.828125 -23.210938 38.296875 -20.742188 38.296875 -18.109375 C 38.296875 -15.503906 37.828125 -13.046875 36.890625 -10.734375 C 35.953125 -8.429688 34.660156 -6.40625 33.015625 -4.65625 C 31.367188 -2.90625 29.453125 -1.535156 27.265625 -0.546875 C 25.078125 0.441406 22.734375 0.9375 20.234375 0.9375 C 17.742188 0.9375 15.410156 0.441406 13.234375 -0.546875 C 11.066406 -1.535156 9.148438 -2.90625 7.484375 -4.65625 C 5.828125 -6.40625 4.53125 -8.429688 3.59375 -10.734375 C 2.65625 -13.046875 2.1875 -15.503906 2.1875 -18.109375 C 2.1875 -20.742188 2.65625 -23.210938 3.59375 -25.515625 C 4.53125 -27.828125 5.828125 -29.859375 7.484375 -31.609375 C 9.148438 -33.359375 11.066406 -34.726562 13.234375 -35.71875 C 15.410156 -36.707031 17.742188 -37.203125 20.234375 -37.203125 Z M 20.234375 0.578125 C 21.835938 0.578125 23.335938 0.09375 24.734375 -0.875 C 26.140625 -1.851562 27.367188 -3.203125 28.421875 -4.921875 C 29.484375 -6.640625 30.3125 -8.625 30.90625 -10.875 C 31.5 -13.125 31.796875 -15.535156 31.796875 -18.109375 C 31.796875 -20.710938 31.5 -23.140625 30.90625 -25.390625 C 30.3125 -27.640625 29.484375 -29.625 28.421875 -31.34375 C 27.367188 -33.0625 26.140625 -34.40625 24.734375 -35.375 C 23.335938 -36.351562 21.835938 -36.84375 20.234375 -36.84375 C 18.640625 -36.84375 17.148438 -36.351562 15.765625 -35.375 C 14.378906 -34.40625 13.144531 -33.0625 12.0625 -31.34375 C 10.988281 -29.625 10.15625 -27.640625 9.5625 -25.390625 C 8.976562 -23.140625 8.6875 -20.710938 8.6875 -18.109375 C 8.6875 -15.535156 8.976562 -13.125 9.5625 -10.875 C 10.15625 -8.625 10.988281 -6.640625 12.0625 -4.921875 C 13.144531 -3.203125 14.378906 -1.851562 15.765625 -0.875 C 17.148438 0.09375 18.640625 0.578125 20.234375 0.578125 Z M 20.234375 0.578125 "/></g></g></g><g fill="#000000" fill-opacity="1"><g transform="translate(327.122168, 204.963061)"><g><path d="M 32.265625 -36.375 C 32.367188 -36.375 32.421875 -36.320312 32.421875 -36.21875 C 32.421875 -36.070312 32.367188 -36 32.265625 -36 C 31.671875 -36 31.15625 -35.789062 30.71875 -35.375 C 30.289062 -34.957031 30.078125 -34.457031 30.078125 -33.875 L 30.078125 0 C 30.078125 0.101562 30.023438 0.15625 29.921875 0.15625 L 29.546875 0.15625 C 29.484375 0.15625 29.429688 0.140625 29.390625 0.109375 L 6.1875 -33.765625 C 5.84375 -34.210938 5.410156 -34.644531 4.890625 -35.0625 L 4.890625 -2.34375 C 4.890625 -1.75 5.097656 -1.234375 5.515625 -0.796875 C 5.929688 -0.367188 6.4375 -0.15625 7.03125 -0.15625 C 7.164062 -0.15625 7.234375 -0.101562 7.234375 0 C 7.234375 0.101562 7.164062 0.15625 7.03125 0.15625 L 2.34375 0.15625 C 2.238281 0.15625 2.1875 0.101562 2.1875 0 C 2.1875 -0.101562 2.238281 -0.15625 2.34375 -0.15625 C 2.96875 -0.15625 3.488281 -0.367188 3.90625 -0.796875 C 4.320312 -1.234375 4.53125 -1.75 4.53125 -2.34375 L 4.53125 -35.28125 C 3.726562 -35.757812 3 -36 2.34375 -36 C 2.238281 -36 2.1875 -36.070312 2.1875 -36.21875 C 2.1875 -36.320312 2.238281 -36.375 2.34375 -36.375 L 11.296875 -36.375 C 11.359375 -36.375 11.410156 -36.351562 11.453125 -36.3125 L 29.765625 -9.671875 L 29.765625 -33.875 C 29.765625 -34.457031 29.546875 -34.957031 29.109375 -35.375 C 28.679688 -35.789062 28.171875 -36 27.578125 -36 C 27.472656 -36 27.421875 -36.070312 27.421875 -36.21875 C 27.421875 -36.320312 27.472656 -36.375 27.578125 -36.375 Z M 32.265625 -36.375 "/></g></g></g><g fill="#000000" fill-opacity="1"><g transform="translate(168.711145, 204.49843)"><g><path d="M 25.859375 -17.65625 C 27.046875 -15.84375 27.40625 -13.878906 26.9375 -11.765625 C 26.488281 -9.628906 25.34375 -7.984375 23.5 -6.828125 C 22.550781 -6.203125 21.492188 -5.8125 20.328125 -5.65625 C 20.097656 -4.5 19.640625 -3.453125 18.953125 -2.515625 C 18.265625 -1.578125 17.445312 -0.828125 16.5 -0.265625 C 16.46875 -0.265625 16.453125 -0.253906 16.453125 -0.234375 C 16.453125 -0.222656 16.4375 -0.21875 16.40625 -0.21875 C 16.40625 -0.21875 16.378906 -0.203125 16.328125 -0.171875 C 16.265625 -0.117188 16.203125 -0.09375 16.140625 -0.09375 C 15.046875 0.5 13.875 0.796875 12.625 0.796875 L 11.015625 0.796875 C 9.554688 0.796875 8.234375 0.425781 7.046875 -0.3125 C 5.859375 -1.050781 4.90625 -2.046875 4.1875 -3.296875 C 3.476562 -4.546875 3.125 -5.929688 3.125 -7.453125 C 3.125 -8.785156 3.40625 -10.015625 3.96875 -11.140625 C 4.53125 -12.273438 5.296875 -13.226562 6.265625 -14 C 7.234375 -14.769531 8.3125 -15.273438 9.5 -15.515625 C 8.3125 -15.753906 7.234375 -16.257812 6.265625 -17.03125 C 5.296875 -17.800781 4.53125 -18.757812 3.96875 -19.90625 C 3.40625 -21.050781 3.125 -22.28125 3.125 -23.59375 C 3.125 -25.132812 3.476562 -26.53125 4.1875 -27.78125 C 4.90625 -29.03125 5.859375 -30.023438 7.046875 -30.765625 C 8.234375 -31.515625 9.554688 -31.890625 11.015625 -31.890625 C 11.992188 -31.890625 12.945312 -31.738281 13.875 -31.4375 L 13.90625 -31.4375 C 15.695312 -30.875 17.242188 -29.863281 18.546875 -28.40625 C 19.109375 -27.84375 19.390625 -27.164062 19.390625 -26.375 C 19.390625 -25.59375 19.109375 -24.914062 18.546875 -24.34375 C 17.984375 -23.78125 17.300781 -23.5 16.5 -23.5 C 15.695312 -23.5 15.015625 -23.78125 14.453125 -24.34375 C 13.878906 -24.914062 13.59375 -25.601562 13.59375 -26.40625 C 13.59375 -27.207031 13.878906 -27.890625 14.453125 -28.453125 C 15.128906 -29.128906 15.425781 -29.664062 15.34375 -30.0625 C 15.25 -30.476562 14.742188 -30.832031 13.828125 -31.125 C 12.898438 -31.425781 11.960938 -31.578125 11.015625 -31.578125 C 10.503906 -31.578125 10.023438 -31.210938 9.578125 -30.484375 C 9.140625 -29.753906 8.785156 -28.785156 8.515625 -27.578125 C 8.242188 -26.378906 8.109375 -25.050781 8.109375 -23.59375 C 8.109375 -22.164062 8.242188 -20.847656 8.515625 -19.640625 C 8.785156 -18.441406 9.140625 -17.476562 9.578125 -16.75 C 10.023438 -16.019531 10.503906 -15.65625 11.015625 -15.65625 C 11.128906 -15.65625 11.1875 -15.609375 11.1875 -15.515625 C 11.1875 -15.398438 11.128906 -15.34375 11.015625 -15.34375 C 10.503906 -15.34375 10.023438 -14.984375 9.578125 -14.265625 C 9.140625 -13.554688 8.785156 -12.597656 8.515625 -11.390625 C 8.242188 -10.191406 8.109375 -8.878906 8.109375 -7.453125 C 8.109375 -6.023438 8.242188 -4.707031 8.515625 -3.5 C 8.785156 -2.289062 9.140625 -1.320312 9.578125 -0.59375 C 10.023438 0.125 10.503906 0.484375 11.015625 0.484375 L 12.625 0.484375 C 12.976562 0.484375 13.332031 0.457031 13.6875 0.40625 C 12.976562 0.34375 12.300781 0.128906 11.65625 -0.234375 C 11.019531 -0.609375 10.492188 -1.109375 10.078125 -1.734375 C 9.367188 -2.835938 9.144531 -4.03125 9.40625 -5.3125 C 9.675781 -6.582031 10.359375 -7.578125 11.453125 -8.296875 C 12.054688 -8.679688 12.679688 -8.921875 13.328125 -9.015625 L 18.8125 -9.625 C 19.644531 -9.75 20.421875 -10.035156 21.140625 -10.484375 C 22.003906 -11.046875 22.648438 -11.753906 23.078125 -12.609375 C 23.503906 -13.472656 23.703125 -14.390625 23.671875 -15.359375 C 23.648438 -16.328125 23.351562 -17.242188 22.78125 -18.109375 C 22.25 -18.941406 21.566406 -19.570312 20.734375 -20 C 19.898438 -20.425781 19.007812 -20.632812 18.0625 -20.625 C 17.113281 -20.613281 16.207031 -20.351562 15.34375 -19.84375 C 15.28125 -19.8125 15.234375 -19.78125 15.203125 -19.75 C 14.753906 -19.457031 14.335938 -19.144531 13.953125 -18.8125 C 13.066406 -17.925781 12.679688 -17.257812 12.796875 -16.8125 C 12.890625 -16.457031 13.351562 -16.191406 14.1875 -16.015625 C 14.957031 -15.859375 15.554688 -15.445312 15.984375 -14.78125 C 16.421875 -14.113281 16.5625 -13.378906 16.40625 -12.578125 C 16.226562 -11.804688 15.800781 -11.195312 15.125 -10.75 C 14.644531 -10.445312 14.125 -10.296875 13.5625 -10.296875 C 13.351562 -10.296875 13.144531 -10.328125 12.9375 -10.390625 C 12.15625 -10.535156 11.5625 -10.953125 11.15625 -11.640625 C 10.707031 -12.296875 10.570312 -13.023438 10.75 -13.828125 C 11.195312 -15.878906 12.191406 -17.617188 13.734375 -19.046875 C 14.148438 -19.398438 14.582031 -19.722656 15.03125 -20.015625 C 15.0625 -20.046875 15.117188 -20.078125 15.203125 -20.109375 C 17.015625 -21.210938 18.945312 -21.523438 21 -21.046875 C 23.082031 -20.566406 24.703125 -19.4375 25.859375 -17.65625 Z M 16.328125 -0.484375 C 17.242188 -1.023438 18.019531 -1.738281 18.65625 -2.625 C 19.300781 -3.519531 19.753906 -4.519531 20.015625 -5.625 L 14.84375 -5 C 14.488281 -4.9375 14.164062 -4.800781 13.875 -4.59375 C 13.300781 -4.238281 12.941406 -3.75 12.796875 -3.125 C 12.679688 -2.46875 12.800781 -1.859375 13.15625 -1.296875 C 13.476562 -0.785156 13.941406 -0.445312 14.546875 -0.28125 C 15.160156 -0.125 15.753906 -0.191406 16.328125 -0.484375 Z M 16.328125 -0.484375 "/></g></g></g></svg>